{"title":"Extreme Measures (1996) Hugh Grant  (DVDrip, opt.subs RU+BLG)","uid":4911161,"size":750211923,"categoryP":"video","categoryS":"movies","magnet":"?xt=urn:btih:2be628d9dc29132e9744349fe2e6cbcb27a2ce00&amp;dn=Extreme+Measures+%281996%29+Hugh+Grant++%28DVDrip%2C+opt.subs+RU%2BBLG%29&amp;tr=udp%3A%2F%2Ftracker.openbittorrent.com%3A80&amp;tr=udp%3A%2F%2Fopen.demonii.com%3A1337&amp;tr=udp%3A%2F%2Ftracker.coppersurfer.tk%3A6969&amp;tr=udp%3A%2F%2Fexodus.desync.com%3A6969","seeders":7,"leechers":4,"uploader":"Kuthumi","files":-1,"time":1243173004,"description":" &lt;a href=&quot;http://www.imdb.com/title/tt0116259/&quot; rel=&quot;nofollow&quot; target=&quot;_NEW&quot;&gt;http://www.imdb.com/title/tt0116259/&lt;/a&gt;\n\nOptional subtitles in separate idx/sub files: Russian, Bulgarian. (Work in \nWindows Media Player etc. - see enclosed Note)\n\nWith Sarah Jessica Parker and Gene Hackman.\n\n&quot;Not all surgery is intended to cure&quot;\n\nRare film with Hugh Grant in a thriller: A British doctor working at a hospital \nin New York starts investigating when the body of a man who died in his \nemergency room disappears. The doctor soon finds himself in danger from people \nwho want the hospital's dark secrets to remain undiscovered.\n\nI was surprised that I could not find any good DVDrip for this good film on the \nnet, so I made one for you. Thanks to the uploader who provided the Russian DVD \nwith the original English soundtrack intact. It had only Russian and Bulgarian \nsubtitles, so I include them to return the favor.\n\nWidescreen DVDrip XviD 2-pass 704x272, great stereo sound AC3.\nRuns well in both my standalone DivX players.\n\nMy new ripping procedure now produces decent quality for such a long film \ncompressed into just 700 MiB. I enclose a sample for ye weak in faith. \n\nFormat/Info                      : Audio Video Interleave\nFile size                        : 694 MiB\nDuration                         : 1h 52mn\nOveral bit rate                  : 861 Kbps\n\nVideo\nFormat                           : MPEG-4 Visual\nFormat profile                   : Streaming Video@L1\nFormat settings, BVOP            : Yes\nFormat settings, QPel            : No\nFormat settings, GMC             : No warppoints\nFormat settings, Matrix          : Default\nMuxing mode                      : Packet Bitstream\nCodec ID                         : XVID\nCodec ID/Hint                    : XviD\nDuration                         : 1h 52mn\nBit rate                         : 723 Kbps\nWidth                            : 720 pixels\nHeight                           : 272 pixels\nDisplay aspect ratio             : 2.647\nFrame rate                       : 25.000 fps\nResolution                       : 8 bits\nColorimetry                      : 4:2:0\nScan type                        : Progressive\nBits/(Pixel*Frame)               : 0.148\nStream size                      : 583 MiB\nWriting library                  : XviD 1.2.0.dev47 (UTC 2006-11-01)\n\nAudio\nFormat                           : MPEG Audio\nFormat version                   : Version 1\nFormat profile                   : Layer 3\nCodec ID                         : 55\nCodec ID/Hint                    : MP3\nDuration                         : 1h 52mn\nBit rate mode                    : Constant\nBit rate                         : 128 Kbps\nMinimum bit rate                 : 128 Kbps\nChannel(s)                       : 2 channels\nSampling rate                    : 48.0 KHz\nResolution                       : 16 bits\nStream size                      : 103 MiB\nWriting library                  : LAME3.97 \nEncoding settings                : CBR\n\nSource: PAL native (note that PAL/NTSC will give no problems for avi files).","torrent":{"xt":"urn:btih:2be628d9dc29132e9744349fe2e6cbcb27a2ce00","amp;dn":"Extreme+Measures+%281996%29+Hugh+Grant++%28DVDrip%2C+opt.subs+RU%2BBLG%29","amp;tr":["udp%3A%2F%2Ftracker.openbittorrent.com%3A80","udp%3A%2F%2Fopen.demonii.com%3A1337","udp%3A%2F%2Ftracker.coppersurfer.tk%3A6969","udp%3A%2F%2Fexodus.desync.com%3A6969"],"infoHash":"2be628d9dc29132e9744349fe2e6cbcb27a2ce00","infoHashBuffer":{"type":"Buffer","data":[43,230,40,217,220,41,19,46,151,68,52,159,226,230,203,203,39,162,206,0]},"announce":[],"urlList":[]}}